<svg width="40" height="40" viewBox="0 0 40 40" fill="none" xmlns="http://www.w3.org/2000/svg">
<rect width="40" height="40" fill="#E5E5E5"/>
<g clip-path="url(#clip0_0_1)">
<rect width="1600" height="4173" transform="translate(-210 -50)" fill="#F8F9FF"/>
<path d="M-210 -50H1390V537L-210 748V-50Z" fill="#172755"/>
<g opacity="0.07">
<path d="M292.387 -167.35C232.929 -254.094 133.11 -311.001 20 -311.001C-162.254 -311.001 -310 -163.255 -310 18.9993C-310 45.5144 -306.873 71.2991 -300.967 96.005L-132.918 -72.0439C-116.809 -88.1531 -90.691 -88.1531 -74.5818 -72.0439L61.25 63.7879L292.387 -167.35Z" fill="#8794BA"/>
<path d="M331.609 -89.8988L90.4182 151.292C74.309 167.402 48.191 167.402 32.0818 151.292L-103.75 15.4606L-268.186 179.897C-211.734 280.792 -103.832 348.999 20 348.999C202.254 348.999 350 201.253 350 18.9993C350 -19.1593 343.523 -55.8051 331.609 -89.8988Z" fill="#8794BA"/>
</g>
<path d="M36.5083 8.70613C32.9048 3.44887 26.8551 0 20 0C8.95431 0 0 8.9543 0 20C0 21.607 0.189533 23.1697 0.547447 24.667L10.7322 14.4822C11.7085 13.5059 13.2915 13.5059 14.2678 14.4822L22.5 22.7145L36.5083 8.70613Z" fill="#EF2A82"/>
<path d="M38.8854 13.4001L24.2678 28.0178C23.2915 28.9941 21.7085 28.9941 20.7322 28.0178L12.5 19.7855L2.53418 29.7514C5.9555 35.8662 12.495 40 20 40C31.0457 40 40 31.0457 40 20C40 17.6874 39.6075 15.4664 38.8854 13.4001Z" fill="#EF2A82"/>
</g>
<defs>
<clipPath id="clip0_0_1">
<rect width="1600" height="4173" fill="white" transform="translate(-210 -50)"/>
</clipPath>
</defs>
</svg>
